<svg xmlns="http://www.w3.org/2000/svg" viewBox="0 0 512 512"><circle cx="256" cy="256" r="256" fill="#5ed1b3"/><path d="M509.225 293.743c-16.431 111.167-104.315 199.05-215.48 215.48L148.259 363.736l215.48-215.48 145.486 145.487z" fill="#4bc2a2"/><path d="M103.632 255.997c0-84.15 68.217-152.366 152.366-152.366 84.15 0 152.366 68.216 152.366 152.366s-68.216 152.366-152.366 152.366c-84.149 0-152.366-68.216-152.366-152.366z" fill="#ff8c8a"/><path d="M255.997 165.181h.005c11.773 0 21.403 9.632 21.403 21.403v138.831c0 11.771-9.63 21.402-21.403 21.402h-.005c-11.773 0-21.403-9.631-21.403-21.402V186.584c0-11.771 9.63-21.403 21.403-21.403z" fill="#f8f8f8"/><path d="M256.004 346.817h-.007c-1.491 0-2.948-.155-4.356-.449 9.702-2.026 17.046-10.674 17.046-20.954V186.582c0-10.279-7.343-18.926-17.046-20.952 1.408-.294 2.865-.45 4.356-.45h.007c11.774 0 21.402 9.63 21.402 21.402v138.831c0 11.772-9.628 21.404-21.402 21.404z" fill="#d9d9dd"/><path d="M165.18 256.004v-.007c0-11.774 9.633-21.402 21.404-21.402h138.831c11.771 0 21.401 9.628 21.401 21.402v.007c0 11.774-9.63 21.402-21.401 21.402H186.584c-11.771 0-21.404-9.628-21.404-21.402z" fill="#f8f8f8"/><path d="M165.18 256.004v-.007c0-1.492.155-2.948.45-4.356 2.026 9.702 10.674 17.046 20.954 17.046h138.831c10.28 0 18.926-7.343 20.953-17.046.294 1.408.45 2.864.45 4.356v.007c0 11.774-9.631 21.402-21.402 21.402H186.584c-11.772 0-21.404-9.628-21.404-21.402z" fill="#d9d9dd"/></svg>