<svg version="1.1" id="Layer_1" xmlns="http://www.w3.org/2000/svg" x="0" y="0" viewBox="0 0 512 512" xml:space="preserve"><style>.st3{fill:#d9d9dd}</style><circle cx="256" cy="256" r="256" fill="#5daf61"/><path d="M507.3 305.2C484.3 423 380.6 512 256 512h-3l-99-99 32.9-100.7-96-93.3 126.3.2L256 99l120 120 45.1-.1 86.2 86.3z" fill="#4b9b58"/><path fill="#f8f8f8" d="M256 99l38.8 120.2 126.2-.3L318.7 293 358 413l-102-74.5L154 413l39.3-120L91 218.9l126.2.3z"/><path class="st3" d="M193.3 293L91 218.9l16.8.1 88.7 64.2zM352.8 397l5.2 16-102-74.5L154 413l5.2-16 96.8-70.6zM404.2 219l16.8-.1L318.7 293l-3.2-9.8z"/></svg>