<svg xmlns="http://www.w3.org/2000/svg" viewBox="0 0 512 512"><circle cx="256" cy="256" r="256" fill="#9ea7db"/><path d="M500.1 333.5L303.9 137.3 148.6 284.6l207.2 207.2c68.4-29 121.6-86.8 144.3-158.3z" fill="#8c95c9"/><path d="M204.8 100.1c58.5-9.2 113.4 30.7 122.6 89.2 5.7 36.1-7.4 70.9-32 94.4l8.8 10.8-11.3 9.2-8.7-10.7c-13.2 9.6-28.8 16.2-46 18.9-58.5 9.2-113.4-30.7-122.7-89.2-9.1-58.5 30.8-113.4 89.3-122.6zm2 12.3c51.7-8.1 100.2 27.1 108.4 78.8S288 291.4 236.3 299.6s-100.2-27.1-108.4-78.8c-8.1-51.7 27.2-100.2 78.9-108.4z" fill="#817c85"/><path fill="#58515e" d="M285.8 292.4l-.7.7 7.8 10.6 1.1-.9z"/><path d="M288.6 307.1l19.8-16c3-2.4 7.4-1.9 9.8 1l74.7 92.8c2.4 3 1.9 7.4-1 9.8l-19.8 16c-3 2.4-7.3 1.9-9.7-1l-74.8-92.8c-2.4-3-2-7.4 1-9.8z" fill="#ff8c8a"/><circle cx="221.5" cy="206" r="95.1" fill="#f8f8f8"/><path d="M288.6 307.1l2-1.6c-2.5 2.5-2.8 6.5-.6 9.3l74.8 92.9c2.2 2.7 6.1 3.3 9 1.6l-1.8 1.4c-3 2.4-7.3 1.9-9.7-1l-74.8-92.8c-2.3-3-1.9-7.4 1.1-9.8z" fill="#fa7876"/><path d="M306.6 186.3c0 57.9-46.9 104.9-104.9 104.9-10.3 0-20.2-1.5-29.6-4.2-.5-.1-1-.3-1.5-.4 14.7 9.3 32.1 14.7 50.8 14.7 52.6 0 95.1-42.6 95.1-95.1 0-18.7-5.4-36.1-14.7-50.8.1.4.3.9.4 1.4 3 9.2 4.4 19.2 4.4 29.5z" fill="#eaeaed"/></svg>