<svg xmlns="http://www.w3.org/2000/svg" viewBox="0 0 512 512"><circle cx="256" cy="256" r="256" fill="#ff8c8a"/><path d="M507.256 305.171C484.326 423.034 380.559 512 256 512c-1.001 0-2.001-.037-2.99-.037L154 412.953l32.937-100.702-95.971-93.302 126.252.235L256 99.047l119.976 119.988 45.057-.086 86.223 86.222z" fill="#fa7876"/><path fill="#f8f8f8" d="M256 99.047l38.781 120.136 126.252-.234-102.284 74.004 39.238 120L256 338.541l-102 74.412 39.251-120-102.284-74.004 126.252.234z"/><g fill="#d9d9dd"><path d="M193.251 292.953L90.967 218.949l16.802.024 88.682 64.182zM352.786 397.028l5.201 15.925L256 338.541l-102 74.412 5.214-15.925L256 326.421zM404.231 218.973l16.802-.024-102.284 74.004-3.212-9.798z"/></g></svg>