<?xml version="1.0" encoding="iso-8859-1"?>
<!-- Generator: Adobe Illustrator 19.0.0, SVG Export Plug-In . SVG Version: 6.00 Build 0)  -->
<svg version="1.1" id="Layer_1" xmlns="http://www.w3.org/2000/svg" xmlns:xlink="http://www.w3.org/1999/xlink" x="0px" y="0px"
	 viewBox="0 0 556.627 556.627" style="enable-background:new 0 0 556.627 556.627;" xml:space="preserve">
<circle style="fill:#FF8C8A;stroke:#FF8C8A;stroke-width:45.17;" cx="278.314" cy="278.314" r="255.729"/>
<path style="fill:#FA7876;" d="M532.87,302.732c-12.302,129.777-121.559,231.311-254.556,231.311
	c-9.229,0-18.335-0.506-27.318-1.456l-95.994-96.006l246.623-265.094L532.87,302.732z"/>
<polygon style="fill:#F8F8F8;" points="155.002,120.047 350.198,120.047 401.625,171.486 401.625,436.58 155.002,436.58 "/>
<polygon style="fill:#6BC9EF;" points="155.002,120.047 350.198,120.047 401.625,171.486 401.625,196.238 155.002,196.238 "/>
<polygon style="fill:#EBECEC;" points="350.198,120.047 350.198,171.486 401.625,171.486 "/>
<path style="fill:#F8F8F8;" d="M172.671,136.297h16.46c3.714,0,6.539,0.284,8.489,0.851c2.603,0.765,4.849,2.147,6.712,4.121
	c1.875,1.962,3.294,4.38,4.269,7.23c0.962,2.85,1.456,6.379,1.456,10.562c0,3.689-0.457,6.848-1.37,9.513
	c-1.123,3.245-2.714,5.885-4.775,7.884c-1.567,1.53-3.677,2.714-6.33,3.578c-1.986,0.629-4.639,0.938-7.958,0.938h-16.953V136.297z
	 M181.727,143.848v29.575h6.7c2.517,0,4.318-0.148,5.429-0.42c1.468-0.37,2.677-0.987,3.64-1.863s1.74-2.307,2.344-4.306
	c0.617-1.999,0.913-4.738,0.913-8.193c0-3.442-0.296-6.083-0.913-7.946c-0.605-1.851-1.456-3.282-2.542-4.318
	c-1.098-1.036-2.48-1.74-4.17-2.11c-1.246-0.271-3.702-0.42-7.366-0.42H181.727z M215.868,158.901c0-4.553,0.691-8.378,2.048-11.475
	c1.012-2.283,2.406-4.331,4.158-6.145c1.764-1.801,3.689-3.146,5.774-4.035c2.789-1.172,6.009-1.764,9.649-1.764
	c6.589,0,11.857,2.048,15.818,6.132c3.948,4.109,5.922,9.797,5.922,17.089c0,7.218-1.962,12.881-5.885,16.965
	c-3.924,4.084-9.168,6.12-15.732,6.12c-6.65,0-11.944-2.024-15.867-6.095C217.842,171.635,215.868,166.045,215.868,158.901z
	 M225.171,158.605c0,5.059,1.172,8.908,3.516,11.524c2.332,2.616,5.306,3.924,8.908,3.924c3.615,0,6.564-1.308,8.884-3.887
	c2.307-2.603,3.467-6.502,3.467-11.685c0-5.133-1.123-8.958-3.381-11.475c-2.246-2.529-5.232-3.788-8.97-3.788
	c-3.726,0-6.725,1.283-9.007,3.837C226.307,149.61,225.171,153.46,225.171,158.605z M294.86,164.503l8.736,2.677
	c-1.333,4.923-3.578,8.575-6.688,10.969c-3.122,2.381-7.082,3.578-11.87,3.578c-5.935,0-10.821-2.024-14.646-6.083
	c-3.813-4.059-5.737-9.599-5.737-16.645c0-7.44,1.925-13.215,5.762-17.336c3.837-4.121,8.896-6.182,15.164-6.182
	c5.466,0,9.908,1.629,13.313,4.861c2.048,1.912,3.566,4.652,4.578,8.242l-8.921,2.122c-0.531-2.307-1.629-4.133-3.307-5.478
	c-1.69-1.345-3.726-2.011-6.12-2.011c-3.319,0-6.009,1.185-8.069,3.566c-2.073,2.381-3.097,6.219-3.097,11.549
	c0,5.639,1.024,9.661,3.048,12.055c2.036,2.406,4.676,3.603,7.934,3.603c2.406,0,4.479-0.765,6.206-2.295
	C292.873,170.166,294.119,167.773,294.86,164.503z"/>
<polygon style="fill:#6BC9EF;" points="172.659,213.771 228.799,213.771 228.799,260.731 172.659,260.731 "/>
<g>
	<polygon style="fill:#B3B3BD;" points="246.147,244.395 381.92,244.395 381.92,255.216 246.147,255.216 	"/>
	<polygon style="fill:#B3B3BD;" points="172.659,282.163 383.968,282.163 383.968,292.984 172.659,292.984 	"/>
	<polygon style="fill:#B3B3BD;" points="172.659,315.341 383.968,315.341 383.968,326.162 172.659,326.162 	"/>
	<polygon style="fill:#B3B3BD;" points="172.659,348.52 383.968,348.52 383.968,359.341 172.659,359.341 	"/>
	<polygon style="fill:#B3B3BD;" points="172.659,381.698 322.893,381.698 322.893,392.507 172.659,392.507 	"/>
</g>
<g>
</g>
<g>
</g>
<g>
</g>
<g>
</g>
<g>
</g>
<g>
</g>
<g>
</g>
<g>
</g>
<g>
</g>
<g>
</g>
<g>
</g>
<g>
</g>
<g>
</g>
<g>
</g>
<g>
</g>
</svg>
