<svg xmlns="http://www.w3.org/2000/svg" viewBox="0 0 512 512"><circle cx="256" cy="256" r="256" fill="#ff8c8a"/><path d="M389.4 147.1L166.2 421.4l91.7 90.6c136.4-1 247.5-108.7 253.8-243.8L389.4 147.1z" fill="#fa7876"/><path d="M258.4 171.7H132.5l21 221.3c2.5 26.3 15.6 36.3 43.4 36.3h123c27.8 0 40.9-10 43.4-36.3l20.9-221.3H258.4z" fill="#fad55c"/><g fill="#e3c04d"><path d="M132.5 171.7h251.7l-.9 9.6H133.4zM258.4 202.6c5.5 0 10 4.5 10 10V372c0 5.5-4.5 10-10 10s-10-4.5-10-10V212.7c-.1-5.6 4.4-10.1 10-10.1zm-91.6 0c5.5 0 10.4 4.5 10.8 10L190.4 372c.4 5.5-3.7 10-9.2 10-5.5 0-10.4-4.5-10.8-10l-12.8-159.4c-.5-5.5 3.7-10 9.2-10zm45.5 0c5.5 0 10.2 4.5 10.5 10l7 159.4c.2 5.5-4 10-9.6 10-5.5 0-10.2-4.5-10.5-10l-7-159.4c-.2-5.5 4.1-10 9.6-10zm137.6 0c-5.5 0-10.4 4.5-10.8 10L326.3 372c-.4 5.5 3.7 10 9.2 10 5.5 0 10.4-4.5 10.8-10l12.8-159.4c.5-5.5-3.7-10-9.2-10zm-45.5 0c-5.5 0-10.2 4.5-10.5 10l-7 159.4c-.2 5.5 4 10 9.6 10 5.5 0 10.2-4.5 10.5-10l7-159.4c.2-5.5-4.1-10-9.6-10zM335.8 417.6l-72.8 1h-9.2l-72.8-1c-12.8-.2-24-11.8-26.6-18.7 3.9 21.8 17 30.3 42.6 30.3h123c25.6 0 38.7-8.5 42.6-30.3-2.8 6.9-14 18.5-26.8 18.7z"/></g><path d="M379.1 141.1L357 130c-7.8-4-15.3-5.7-24.1-5.7h-38.3v-11.7c0-4.3-1.6-8.3-4.1-11.2-2.7-3.1-6.5-5.1-10.7-5.1h-43c-4.2 0-8 1.9-10.7 5.1-2.5 2.9-4.1 6.9-4.1 11.2v11.7h-38.3c-8.8 0-16.3 1.8-24.1 5.7l-22 11.1c-7 3.5-14.2 6.4-14.2 14.2v16.4h269.7v-16.4c.1-7.8-7.1-10.7-14-14.2zm-93.8-16.9h-53.9v-11.7c0-2.1.7-4 1.9-5.3 1-1.1 2.2-1.8 3.6-1.8h43c1.4 0 2.6.7 3.6 1.8 1.2 1.3 1.9 3.2 1.9 5.3v11.7h-.1z" fill="#817c85"/></svg>