<svg xmlns="http://www.w3.org/2000/svg" viewBox="0 0 512 512"><circle cx="256" cy="256" r="256" fill="#eaeaed"/><path d="M509.22 293.743C492.789 404.91 404.91 492.789 293.743 509.22L148.255 363.732l215.477-215.477L509.22 293.743z" fill="#d9d9dd"/><path d="M103.631 256c0-84.147 68.222-152.369 152.369-152.369S408.357 171.853 408.357 256 340.147 408.357 256 408.357 103.631 340.147 103.631 256z" fill="#ff8c8a"/><g fill="#f3f3f3"><path d="M205.704 313.313v-.012c-7.425-9.13-6.029-22.671 3.101-30.108L316.5 195.586c9.13-7.425 22.671-6.029 30.108 3.101 7.437 9.142 6.041 22.683-3.089 30.121l-107.708 87.607c-9.129 7.424-22.669 6.028-30.107-3.102z"/><path d="M168.48 234.033v-.012c9.142-7.425 22.683-6.029 30.108 3.101l39.671 48.764c7.425 9.13 6.029 22.671-3.101 30.108-9.142 7.425-22.683 6.029-30.108-3.101l-39.671-48.751c-7.425-9.13-6.029-22.683 3.101-30.109z"/></g></svg>